# Blender v2.83.3 OBJ File: ''
# www.blender.org
mtllib Katana.mtl
o Katana_Mesh
v 0.000000 2.596390 1.069270
v 0.000000 8.295228 0.305947
v 0.000000 8.452441 0.064284
v 0.000000 2.596390 0.787037
v -0.002483 8.416332 0.128311
v 0.002483 8.416332 0.128311
v 0.028777 2.596390 0.843484
v -0.028777 2.596390 0.843484
v 0.028777 3.128847 0.839279
v 0.000000 3.128207 0.782838
v -0.028777 3.128847 0.839279
v 0.000000 3.131401 1.065041
v 0.028777 3.660967 0.823019
v 0.000000 3.659558 0.766602
v -0.028777 3.660967 0.823019
v 0.000000 3.666602 1.048688
v 0.028777 4.192781 0.794532
v 0.000000 4.190602 0.738157
v -0.028777 4.192781 0.794532
v 0.000000 4.201495 1.020036
v 0.028777 4.724123 0.753826
v 0.000000 4.721176 0.697510
v -0.028777 4.724123 0.753826
v 0.000000 4.735914 0.979094
v 0.028777 5.254827 0.700914
v 0.000000 5.251112 0.644674
v -0.028777 5.254827 0.700914
v 0.000000 5.269691 0.925876
v 0.028777 5.784726 0.635813
v 0.000000 5.780243 0.579667
v -0.028777 5.784726 0.635813
v -0.000000 5.802657 0.860397
v 0.028777 6.313653 0.558542
v 0.000000 6.308405 0.502508
v -0.028777 6.313653 0.558542
v 0.000000 6.334646 0.782679
v 0.028777 6.841442 0.469127
v 0.000000 6.835430 0.413222
v -0.028777 6.841442 0.469127
v 0.000000 6.865490 0.692746
v 0.028777 7.367929 0.367595
v 0.000000 7.361155 0.311837
v -0.028777 7.367929 0.367595
v 0.000000 7.395024 0.590626
v 0.028777 7.892947 0.253977
v 0.000000 7.885414 0.198384
v -0.028777 7.892947 0.253977
v 0.000000 7.923082 0.476351
v 0.000000 8.107817 0.145786
v 0.020036 8.119990 0.199463
v -0.020036 8.119989 0.199464
v -0.000046 8.104279 0.416533
v 0.000000 2.712805 1.068350
v -0.028777 2.712805 0.842564
v 0.028777 2.712805 0.842564
v 0.000000 2.712805 0.786118
v 0.000000 8.366950 0.084503
v 0.011235 8.348573 0.144580
v -0.000013 8.242210 0.336652
v -0.011235 8.348573 0.144580
v 0.079698 0.869613 0.864367
v 0.046014 0.869613 0.811490
v 0.000000 0.869613 0.792136
v -0.046014 0.869613 0.811490
v -0.079698 0.869613 0.864367
v -0.092028 0.869612 0.936598
v -0.079698 0.869612 1.008829
v -0.046014 0.869612 1.061705
v 0.000000 0.869612 1.081060
v 0.046014 0.869612 1.061705
v 0.079698 0.869612 1.008829
v 0.092028 0.869612 0.936598
v 0.079698 2.476157 0.864367
v 0.046014 2.476157 0.811491
v 0.000000 2.476157 0.792136
v -0.046014 2.476157 0.811491
v -0.079698 2.476157 0.864367
v -0.092028 2.476157 0.936598
v -0.079698 2.476157 1.008829
v -0.046014 2.476157 1.061706
v 0.000000 2.476157 1.081060
v 0.046014 2.476157 1.061706
v 0.079698 2.476157 1.008829
v 0.092028 2.476157 0.936598
v 0.125108 2.599446 0.864367
v 0.072231 2.599446 0.811491
v 0.000000 2.599446 0.936598
v 0.000000 2.599446 0.792136
v -0.072231 2.599446 0.811490
v -0.125108 2.599446 0.864367
v -0.144462 2.599446 0.936598
v -0.125108 2.599446 1.008829
v -0.072231 2.599446 1.061706
v 0.000000 2.599446 1.081060
v 0.072231 2.599446 1.061706
v 0.125108 2.599446 1.008829
v 0.144462 2.599446 0.936598
v 0.191778 2.533798 0.736861
v 0.110723 2.533798 0.590643
v 0.110723 2.585258 0.590643
v 0.191778 2.585258 0.736861
v 0.000000 2.533798 0.537124
v 0.000000 2.585258 0.537124
v -0.110723 2.533798 0.590643
v -0.110723 2.585258 0.590643
v -0.191778 2.533798 0.736861
v -0.191778 2.585258 0.736861
v -0.221446 2.533798 0.936598
v -0.221446 2.585258 0.936598
v -0.191778 2.533798 1.136335
v -0.191778 2.585258 1.136335
v -0.110723 2.533798 1.282553
v -0.110723 2.585258 1.282553
v -0.000000 2.533798 1.336072
v -0.000000 2.585258 1.336073
v 0.110723 2.533798 1.282553
v 0.110723 2.585258 1.282553
v 0.191778 2.533798 1.136335
v 0.191778 2.585258 1.136335
v 0.221446 2.533798 0.936598
v 0.221446 2.585258 0.936598
v 0.070000 0.857586 0.873156
v 0.040415 0.857586 0.826714
v 0.000000 0.857586 0.809715
v -0.040415 0.857586 0.826714
v -0.070000 0.857586 0.873156
v -0.080829 0.857586 0.936598
v -0.070000 0.857586 1.000039
v -0.040415 0.857586 1.046482
v 0.000000 0.857586 1.063481
v 0.040415 0.857586 1.046482
v 0.070000 0.857586 1.000039
v 0.080829 0.857586 0.936598
v 0.062008 0.821073 0.877486
v 0.035800 0.821073 0.834213
v 0.000000 0.821073 0.936598
v 0.000000 0.821073 0.818374
v -0.035800 0.821073 0.834213
v -0.062008 0.821073 0.877486
v -0.071600 0.821073 0.936598
v -0.062008 0.821073 0.995710
v -0.035800 0.821073 1.038983
v 0.000000 0.821073 1.054821
v 0.035800 0.821073 1.038983
v 0.062008 0.821073 0.995710
v 0.071600 0.821073 0.936598
v 0.058839 2.531966 0.752754
v 0.101913 2.531966 0.830456
v 0.000000 2.531967 0.724314
v -0.058839 2.531966 0.752754
v -0.101913 2.531966 0.830456
v -0.117679 2.531966 0.936598
v -0.101913 2.531966 1.042740
v -0.058839 2.531966 1.120442
v -0.000000 2.531966 1.148882
v 0.058839 2.531966 1.120442
v 0.101913 2.531966 1.042740
v 0.117679 2.531966 0.936598
v 0.061195 2.476093 0.752587
v 0.106283 2.476093 0.830266
v 0.000000 2.476094 0.724210
v -0.061195 2.476093 0.752587
v -0.106283 2.476093 0.830266
v -0.122898 2.476093 0.936598
v -0.106283 2.476093 1.042930
v -0.061195 2.476093 1.120609
v -0.000000 2.476093 1.148986
v 0.061195 2.476093 1.120609
v 0.106283 2.476093 1.042930
v 0.122898 2.476093 0.936598
vt 0.955022 0.087856
vt 0.955022 0.087856
vt 0.955859 0.029922
vt 0.763960 0.067875
vt 0.750486 0.067875
vt 0.750486 0.067875
vt 0.788618 -2.329885
vt 0.828522 -2.296263
vt 0.828522 -2.060895
vt 0.788618 -2.060895
vt 0.788618 -1.816402
vt 0.828522 -1.816403
vt 0.828522 -2.060895
vt 0.957405 0.272935
vt 0.962415 -1.816403
vt 0.828522 -1.816403
vt 0.962111 -2.059616
vt 0.705275 0.067875
vt 0.962354 -2.193728
vt 0.828522 -2.296263
vt 0.828522 3.094489
vt 0.828522 3.519474
vt 0.788618 3.519474
vt 0.788618 3.094489
vt 0.750486 0.107937
vt 0.763960 0.107937
vt 0.962415 3.094489
vt 0.828522 3.094489
vt 0.828522 3.519474
vt 0.962415 3.519474
vt 0.750486 0.107937
vt 0.705275 0.107937
vt 0.828522 2.550008
vt 0.788618 2.550008
vt 0.828522 2.550008
vt 0.962415 2.550008
vt 0.828522 2.004837
vt 0.788618 2.004837
vt 0.828522 2.004837
vt 0.962415 2.004837
vt 0.828522 1.459141
vt 0.788618 1.459141
vt 0.828522 1.459141
vt 0.962415 1.459141
vt 0.828522 0.913095
vt 0.788618 0.913095
vt 0.828522 0.913095
vt 0.962415 0.913095
vt 0.828522 0.366870
vt 0.788618 0.366870
vt 0.828522 0.366870
vt 0.962415 0.366870
vt 0.828522 -0.179364
vt 0.788618 -0.179364
vt 0.828522 -0.179364
vt 0.962415 -0.179364
vt 0.828522 -0.725435
vt 0.788618 -0.725435
vt 0.828522 -0.725435
vt 0.962415 -0.725435
vt 0.828522 -1.271171
vt 0.788618 -1.271171
vt 0.828522 -1.271171
vt 0.962415 -1.271171
vt 0.931825 0.129463
vt 0.929349 0.077473
vt 0.944163 0.296600
vt 0.931825 0.129463
vt 0.479884 -4.230580
vt 0.593279 -4.230580
vt 0.593279 5.221443
vt 0.479884 5.221443
vt 0.683568 -4.230580
vt 0.683568 5.221443
vt 0.011128 -5.211747
vt 0.101416 -5.211747
vt 0.101416 6.202608
vt 0.011128 6.202608
vt 0.214813 -5.211747
vt 0.214813 6.202608
vt 0.347347 -5.211747
vt 0.347347 6.202608
vt 0.479882 -5.211744
vt 0.479882 6.202604
vt 0.593279 -5.211744
vt 0.593279 6.202604
vt 0.683567 -5.211744
vt 0.683567 6.202604
vt 0.011127 -4.230585
vt 0.101417 -4.230582
vt 0.101416 5.221448
vt 0.011127 5.221448
vt 0.214813 -4.230582
vt 0.214813 5.221448
vt 0.347348 -4.230580
vt 0.347348 5.221443
vt 0.661127 0.955064
vt 0.658380 0.956555
vt 0.654661 0.952836
vt 0.662407 0.952905
vt 0.657704 0.949760
vt 0.658980 0.950590
vt 0.655845 0.949591
vt 0.653671 0.950023
vt 0.651619 0.950924
vt 0.650199 0.952123
vt 0.649709 0.953405
vt 0.650216 0.954690
vt 0.651835 0.955935
vt 0.654683 0.956844
vt 0.692583 0.951053
vt 0.692575 0.953085
vt 0.689896 0.950582
vt 0.692558 0.956038
vt 0.687054 0.954530
vt 0.688621 0.950877
vt 0.688679 0.950370
vt 0.688863 0.949917
vt 0.689147 0.949584
vt 0.689479 0.949362
vt 0.689841 0.949241
vt 0.690177 0.949194
vt 0.690572 0.949180
vt 0.691173 0.949326
vt 0.691869 0.949819
vt 0.695987 0.949919
vt 0.700067 0.953342
vt 0.699157 0.954171
vt 0.695391 0.950936
vt 0.703564 0.956212
vt 0.701295 0.957638
vt 0.687021 0.950359
vt 0.687538 0.950107
vt 0.687642 0.950254
vt 0.687226 0.950665
vt 0.688088 0.949663
vt 0.688224 0.949856
vt 0.688827 0.949062
vt 0.688960 0.949282
vt 0.689550 0.948599
vt 0.689620 0.948784
vt 0.689900 0.948480
vt 0.689925 0.948581
vt 0.690083 0.948448
vt 0.690094 0.948499
vt 0.690263 0.948364
vt 0.690279 0.948482
vt 0.690716 0.948197
vt 0.690708 0.948506
vt 0.692453 0.948230
vt 0.692220 0.948936
vt 0.700067 0.953342
vt 0.695987 0.949919
vt 0.694903 0.945530
vt 0.697602 0.944763
vt 0.703564 0.956212
vt 0.704922 0.944763
vt 0.687538 0.950107
vt 0.687021 0.950359
vt 0.687314 0.949044
vt 0.687614 0.949011
vt 0.688088 0.949663
vt 0.688006 0.948793
vt 0.688827 0.949062
vt 0.688466 0.948454
vt 0.689550 0.948599
vt 0.688983 0.948120
vt 0.689900 0.948480
vt 0.689483 0.947833
vt 0.690083 0.948448
vt 0.689843 0.947613
vt 0.690263 0.948364
vt 0.690253 0.947314
vt 0.690716 0.948197
vt 0.691115 0.946750
vt 0.692453 0.948230
vt 0.692601 0.946059
vt 0.666424 0.959376
vt 0.661607 0.962651
vt 0.659697 0.960109
vt 0.663676 0.957876
vt 0.668692 0.955753
vt 0.665695 0.955089
vt 0.659192 0.946283
vt 0.661293 0.947392
vt 0.660038 0.948547
vt 0.658284 0.947698
vt 0.656157 0.946045
vt 0.655802 0.947449
vt 0.652580 0.946654
vt 0.652978 0.947946
vt 0.649114 0.948192
vt 0.650297 0.949192
vt 0.646506 0.950474
vt 0.648336 0.951084
vt 0.645347 0.953123
vt 0.647532 0.953332
vt 0.645911 0.956083
vt 0.648061 0.955782
vt 0.648336 0.959383
vt 0.650142 0.958265
vt 0.653035 0.962651
vt 0.653972 0.960254
vt 0.695987 0.949919
vt 0.700067 0.953342
vt 0.703564 0.956212
vt 0.687021 0.950359
vt 0.687538 0.950107
vt 0.688088 0.949663
vt 0.688827 0.949062
vt 0.689550 0.948599
vt 0.689900 0.948480
vt 0.690083 0.948448
vt 0.690263 0.948364
vt 0.690716 0.948197
vt 0.692453 0.948230
vn 0.0002 0.8381 0.5455
vn 0.0000 0.8381 0.5455
vn 0.0000 0.8710 0.4912
vn 0.0000 -1.0000 0.0000
vn 0.9789 -0.0162 -0.2035
vn 0.9984 0.0325 -0.0458
vn 0.9996 0.0243 -0.0157
vn 0.9416 -0.0612 -0.3310
vn -0.8978 -0.0904 -0.4310
vn -1.0000 0.0058 -0.0062
vn -0.9996 0.0243 -0.0158
vn -0.9416 -0.0613 -0.3312
vn 0.0000 0.8262 0.5633
vn 0.9921 0.0329 0.1209
vn 1.0000 0.0059 -0.0062
vn 0.9931 0.0535 0.1046
vn -0.9937 0.0610 0.0939
vn -0.9984 0.0326 -0.0459
vn -0.9931 0.0533 0.1045
vn 1.0000 0.0001 0.0018
vn 1.0000 0.0000 0.0009
vn 0.8909 -0.0036 -0.4542
vn 0.8909 -0.0092 -0.4541
vn -0.8909 -0.0036 -0.4542
vn -1.0000 -0.0014 0.0010
vn -1.0000 0.0000 0.0009
vn -0.9920 0.0024 0.1264
vn -1.0000 0.0001 0.0018
vn -0.9920 0.0010 0.1264
vn 0.9920 0.0010 0.1264
vn 1.0000 0.0000 0.0010
vn 0.8908 -0.0191 -0.4539
vn -0.8909 -0.0092 -0.4541
vn -0.8908 -0.0191 -0.4539
vn -0.9920 0.0053 0.1264
vn 0.9920 0.0024 0.1264
vn 0.9920 0.0053 0.1264
vn 0.8907 -0.0296 -0.4535
vn -0.8907 -0.0296 -0.4535
vn -0.9920 0.0082 0.1263
vn 0.9920 0.0082 0.1263
vn 1.0000 0.0002 0.0018
vn 0.8906 -0.0400 -0.4530
vn -1.0000 0.0002 0.0018
vn -0.8906 -0.0400 -0.4530
vn -0.9920 0.0111 0.1261
vn 0.9920 0.0111 0.1261
vn 1.0000 0.0003 0.0017
vn 0.8904 -0.0505 -0.4523
vn -1.0000 0.0003 0.0017
vn -0.8904 -0.0505 -0.4523
vn -0.9919 0.0140 0.1260
vn 0.9919 0.0140 0.1260
vn 0.8902 -0.0609 -0.4514
vn -0.8902 -0.0609 -0.4514
vn -0.9919 0.0169 0.1258
vn 0.9919 0.0169 0.1258
vn 1.0000 0.0004 0.0017
vn 0.8900 -0.0712 -0.4504
vn -1.0000 0.0004 0.0017
vn -0.8900 -0.0712 -0.4504
vn -0.9919 0.0197 0.1255
vn 0.9919 0.0197 0.1255
vn 0.8897 -0.0816 -0.4492
vn -0.8897 -0.0816 -0.4492
vn -0.9919 0.0226 0.1252
vn 0.9919 0.0226 0.1252
vn 0.8894 -0.0919 -0.4479
vn -1.0000 0.0005 0.0017
vn -0.8894 -0.0919 -0.4479
vn -0.9918 0.0255 0.1249
vn 0.9918 0.0255 0.1249
vn 0.8978 -0.0904 -0.4310
vn -0.9921 0.0329 0.1208
vn -0.9789 -0.0162 -0.2035
vn 0.9937 0.0609 0.0941
vn 0.9977 0.0654 -0.0160
vn 0.9949 0.0342 -0.0950
vn 0.9879 0.1127 0.1061
vn -0.9977 0.0655 -0.0160
vn -0.9879 0.1130 0.1061
vn -0.9949 0.0342 -0.0950
vn 0.8434 0.0000 -0.5373
vn 0.3877 0.0000 -0.9218
vn -0.3877 0.0000 -0.9218
vn -0.8434 0.0000 -0.5373
vn -0.9857 0.0000 -0.1683
vn -0.9857 -0.0000 0.1683
vn -0.8434 -0.0000 0.5373
vn -0.3877 -0.0000 0.9218
vn 0.3877 -0.0000 0.9218
vn 0.8434 -0.0000 0.5373
vn 0.9857 -0.0000 0.1683
vn 0.9857 0.0000 -0.1683
vn 0.1024 0.9942 -0.0326
vn 0.0458 0.9978 -0.0476
vn 0.0000 1.0000 0.0000
vn -0.0000 0.9988 -0.0495
vn -0.0458 0.9978 -0.0476
vn -0.1024 0.9942 -0.0326
vn -0.1270 0.9919 0.0000
vn -0.1024 0.9942 0.0326
vn -0.0458 0.9978 0.0476
vn 0.0000 0.9988 0.0495
vn 0.0458 0.9978 0.0476
vn 0.1024 0.9942 0.0326
vn 0.1270 0.9919 -0.0000
vn 0.8746 0.0000 -0.4848
vn 0.4352 0.0000 -0.9003
vn -0.4352 0.0000 -0.9003
vn -0.8746 -0.0000 -0.4848
vn -0.9891 -0.0000 -0.1469
vn -0.9891 -0.0000 0.1469
vn -0.8746 -0.0000 0.4848
vn -0.4352 -0.0000 0.9003
vn 0.4352 -0.0000 0.9003
vn 0.8746 -0.0000 0.4848
vn 0.9891 -0.0000 0.1469
vn 0.9891 0.0000 -0.1469
vn -0.0012 -1.0000 0.0008
vn -0.0015 -1.0000 0.0006
vn -0.0018 -1.0000 0.0005
vn -0.0004 -1.0000 0.0010
vn 0.0973 0.9939 -0.0517
vn 0.0361 0.9977 -0.0573
vn -0.0000 -1.0000 0.0010
vn -0.0000 0.9983 -0.0577
vn 0.0012 -1.0000 0.0008
vn 0.0004 -1.0000 0.0010
vn -0.0362 0.9977 -0.0573
vn 0.0015 -1.0000 0.0007
vn 0.0018 -1.0000 0.0005
vn -0.0973 0.9939 -0.0517
vn 0.0020 -1.0000 -0.0000
vn -0.1679 0.9858 0.0000
vn 0.0015 -1.0000 -0.0006
vn 0.0018 -1.0000 -0.0005
vn -0.0973 0.9939 0.0517
vn 0.0013 -1.0000 -0.0008
vn 0.0004 -1.0000 -0.0010
vn -0.0361 0.9977 0.0573
vn 0.0000 -1.0000 -0.0010
vn 0.0000 0.9983 0.0577
vn -0.0013 -1.0000 -0.0008
vn -0.0010 -1.0000 -0.0008
vn 0.0361 0.9977 0.0573
vn -0.0015 -1.0000 -0.0007
vn -0.0018 -1.0000 -0.0005
vn 0.0973 0.9939 0.0517
vn -0.0020 -1.0000 0.0000
vn 0.1679 0.9858 -0.0000
vn 0.5751 -0.7315 -0.3664
vn 0.2311 -0.8030 -0.5494
vn -0.2311 -0.8030 -0.5494
vn -0.5751 -0.7315 -0.3664
vn -0.7262 -0.6762 -0.1240
vn -0.7262 -0.6762 0.1240
vn -0.5751 -0.7315 0.3664
vn -0.2311 -0.8030 0.5494
vn 0.2311 -0.8030 0.5494
vn 0.5751 -0.7315 0.3664
vn 0.7262 -0.6762 0.1240
vn 0.7262 -0.6762 -0.1240
vn 0.8272 -0.2261 -0.5144
vn 0.3858 -0.2225 -0.8954
vn -0.3858 -0.2225 -0.8954
vn -0.8272 -0.2261 -0.5144
vn -0.9586 -0.2355 -0.1597
vn -0.9586 -0.2355 0.1597
vn -0.8272 -0.2261 0.5144
vn -0.3858 -0.2225 0.8954
vn 0.3858 -0.2225 0.8954
vn 0.8272 -0.2261 0.5144
vn 0.9586 -0.2355 0.1597
vn 0.9586 -0.2355 -0.1597
vn 0.0117 -0.9999 -0.0075
vn 0.0170 -0.9999 -0.0033
vn 0.0135 -0.9999 -0.0066
vn 0.0056 -0.9999 -0.0095
vn 0.0000 -1.0000 -0.0098
vn -0.0117 -0.9999 -0.0075
vn -0.0056 -0.9999 -0.0095
vn -0.0170 -0.9999 -0.0033
vn -0.0135 -0.9999 -0.0066
vn -0.0176 -0.9998 -0.0000
vn -0.0170 -0.9999 0.0033
vn -0.0135 -0.9999 0.0066
vn -0.0117 -0.9999 0.0075
vn -0.0056 -0.9999 0.0095
vn -0.0000 -1.0000 0.0098
vn 0.0117 -0.9999 0.0075
vn 0.0056 -0.9999 0.0095
vn 0.0170 -0.9999 0.0033
vn 0.0135 -0.9999 0.0066
vn 0.0176 -0.9998 0.0000
vn 0.8685 0.0538 -0.4928
vn 0.9470 0.0717 -0.3130
vn 0.9486 0.0722 -0.3081
vn 0.4278 0.0112 -0.9038
vn -0.4278 0.0112 -0.9038
vn -0.9471 0.0717 -0.3129
vn -0.8685 0.0538 -0.4928
vn -0.9486 0.0722 -0.3081
vn -0.9963 0.0858 0.0000
vn -0.9470 0.0717 0.3130
vn -0.9486 0.0722 0.3081
vn -0.8685 0.0538 0.4928
vn -0.4278 0.0112 0.9038
vn 0.4278 0.0112 0.9038
vn 0.9470 0.0717 0.3130
vn 0.8685 0.0538 0.4928
vn 0.9486 0.0722 0.3081
vn 0.9963 0.0858 0.0000
usemtl lambert1
s 1
f 5/1/1 6/2/2 3/3/3
f 4/4/4 7/5/4 8/6/4
f 57/7/5 58/8/6 50/9/7 49/10/8
f 46/11/9 47/12/10 51/13/11 49/10/12
f 2/14/13 6/2/2 5/1/1
f 48/15/14 45/16/15 50/9/7 52/17/16
f 8/6/4 7/5/4 1/18/4
f 59/19/17 60/20/18 51/13/11 52/17/19
f 9/21/20 55/22/21 56/23/22 10/24/23
f 4/4/24 8/6/25 54/25/26 56/26/24
f 12/27/27 11/28/28 54/29/26 53/30/29
f 1/18/30 7/5/31 55/31/21 53/32/30
f 13/33/20 9/21/20 10/24/23 14/34/32
f 10/24/33 11/28/28 15/35/28 14/34/34
f 16/36/35 15/35/28 11/28/28 12/27/27
f 12/27/36 9/21/20 13/33/20 16/36/37
f 17/37/20 13/33/20 14/34/32 18/38/38
f 14/34/34 15/35/28 19/39/28 18/38/39
f 20/40/40 19/39/28 15/35/28 16/36/35
f 16/36/37 13/33/20 17/37/20 20/40/41
f 21/41/42 17/37/20 18/38/38 22/42/43
f 18/38/39 19/39/28 23/43/44 22/42/45
f 24/44/46 23/43/44 19/39/28 20/40/40
f 20/40/41 17/37/20 21/41/42 24/44/47
f 25/45/48 21/41/42 22/42/43 26/46/49
f 22/42/45 23/43/44 27/47/50 26/46/51
f 28/48/52 27/47/50 23/43/44 24/44/46
f 24/44/47 21/41/42 25/45/48 28/48/53
f 29/49/48 25/45/48 26/46/49 30/50/54
f 26/46/51 27/47/50 31/51/50 30/50/55
f 32/52/56 31/51/50 27/47/50 28/48/52
f 28/48/53 25/45/48 29/49/48 32/52/57
f 33/53/58 29/49/48 30/50/54 34/54/59
f 30/50/55 31/51/50 35/55/60 34/54/61
f 36/56/62 35/55/60 31/51/50 32/52/56
f 32/52/57 29/49/48 33/53/58 36/56/63
f 37/57/58 33/53/58 34/54/59 38/58/64
f 34/54/61 35/55/60 39/59/60 38/58/65
f 40/60/66 39/59/60 35/55/60 36/56/62
f 36/56/63 33/53/58 37/57/58 40/60/67
f 41/61/58 37/57/58 38/58/64 42/62/68
f 38/58/65 39/59/60 43/63/69 42/62/70
f 44/64/71 43/63/69 39/59/60 40/60/66
f 40/60/67 37/57/58 41/61/58 44/64/72
f 45/16/15 41/61/58 42/62/68 46/11/73
f 42/62/70 43/63/69 47/12/10 46/11/9
f 48/15/74 47/12/10 43/63/69 44/64/71
f 44/64/72 41/61/58 45/16/15 48/15/14
f 49/10/8 50/9/7 45/16/15 46/11/73
f 49/10/12 51/13/11 60/20/18 57/7/75
f 52/17/16 50/9/7 58/8/6 59/19/76
f 56/26/22 55/31/21 7/5/31 4/4/22
f 56/23/24 54/29/26 11/28/28 10/24/33
f 53/32/29 54/25/26 8/6/25 1/18/29
f 53/30/30 55/22/21 9/21/20 12/27/36
f 52/17/19 51/13/11 47/12/10 48/15/74
f 6/2/77 58/65/6 57/66/5 3/3/78
f 59/67/76 58/65/6 6/2/77 2/14/79
f 5/1/80 60/68/18 59/67/17 2/14/81
f 57/66/75 60/68/18 5/1/80 3/3/82
f 61/69/83 62/70/83 74/71/83 73/72/83
f 62/70/84 63/73/84 75/74/84 74/71/84
f 63/75/85 64/76/85 76/77/85 75/78/85
f 64/76/86 65/79/86 77/80/86 76/77/86
f 65/79/87 66/81/87 78/82/87 77/80/87
f 66/81/88 67/83/88 79/84/88 78/82/88
f 67/83/89 68/85/89 80/86/89 79/84/89
f 68/85/90 69/87/90 81/88/90 80/86/90
f 69/89/91 70/90/91 82/91/91 81/92/91
f 70/90/92 71/93/92 83/94/92 82/91/92
f 71/93/93 72/95/93 84/96/93 83/94/93
f 72/95/94 61/69/94 73/72/94 84/96/94
f 135/97/4 134/98/4 136/99/4
f 137/100/4 135/97/4 136/99/4
f 138/101/4 137/102/4 136/99/4
f 139/103/4 138/101/4 136/99/4
f 140/104/4 139/103/4 136/99/4
f 141/105/4 140/104/4 136/99/4
f 142/106/4 141/105/4 136/99/4
f 143/107/4 142/106/4 136/99/4
f 144/108/4 143/107/4 136/99/4
f 145/109/4 144/108/4 136/99/4
f 146/110/4 145/109/4 136/99/4
f 134/98/4 146/110/4 136/99/4
f 85/111/95 86/112/96 87/113/97
f 86/112/96 88/114/98 87/115/97
f 88/116/98 89/117/99 87/113/97
f 89/117/99 90/118/100 87/113/97
f 90/118/100 91/119/101 87/113/97
f 91/119/101 92/120/102 87/113/97
f 92/120/102 93/121/103 87/113/97
f 93/121/103 94/122/104 87/113/97
f 94/122/104 95/123/105 87/113/97
f 95/123/105 96/124/106 87/113/97
f 96/124/106 97/125/107 87/113/97
f 97/125/107 85/111/95 87/113/97
f 98/126/108 99/127/108 100/128/108 101/129/108
f 99/127/109 102/130/109 103/131/109 100/128/109
f 102/132/110 104/133/110 105/134/110 103/135/110
f 104/133/111 106/136/111 107/137/111 105/134/111
f 106/136/112 108/138/112 109/139/112 107/137/112
f 108/138/113 110/140/113 111/141/113 109/139/113
f 110/140/114 112/142/114 113/143/114 111/141/114
f 112/142/115 114/144/115 115/145/115 113/143/115
f 114/144/116 116/146/116 117/147/116 115/145/116
f 116/146/117 118/148/117 119/149/117 117/147/117
f 118/148/118 120/150/118 121/151/118 119/149/118
f 120/150/119 98/126/119 101/129/119 121/151/119
f 159/152/120 160/153/121 73/154/122 74/155/123
f 86/112/96 85/111/95 101/129/124 100/128/125
f 161/156/126 159/152/120 74/155/123 75/157/126
f 88/114/98 86/112/96 100/128/125 103/131/127
f 162/158/128 161/159/126 75/160/126 76/161/129
f 89/117/99 88/116/98 103/135/127 105/134/130
f 163/162/131 162/158/128 76/161/129 77/163/132
f 90/118/100 89/117/99 105/134/130 107/137/133
f 164/164/134 163/162/131 77/163/132 78/165/134
f 91/119/101 90/118/100 107/137/133 109/139/135
f 165/166/136 164/164/134 78/165/134 79/167/137
f 92/120/102 91/119/101 109/139/135 111/141/138
f 166/168/139 165/166/136 79/167/137 80/169/140
f 93/121/103 92/120/102 111/141/138 113/143/141
f 167/170/142 166/168/139 80/169/140 81/171/142
f 94/122/104 93/121/103 113/143/141 115/145/143
f 168/172/144 167/170/142 81/171/142 82/173/145
f 95/123/105 94/122/104 115/145/143 117/147/146
f 169/174/147 168/172/144 82/173/145 83/175/148
f 96/124/106 95/123/105 117/147/146 119/149/149
f 170/176/150 169/174/147 83/175/148 84/177/150
f 97/125/107 96/124/106 119/149/149 121/151/151
f 73/154/122 160/153/121 170/176/150 84/177/150
f 85/111/95 97/125/107 121/151/151 101/129/124
f 62/178/152 61/179/152 122/180/152 123/181/152
f 63/182/153 62/178/153 123/181/153 124/183/153
f 64/184/154 63/185/154 124/186/154 125/187/154
f 65/188/155 64/184/155 125/187/155 126/189/155
f 66/190/156 65/188/156 126/189/156 127/191/156
f 67/192/157 66/190/157 127/191/157 128/193/157
f 68/194/158 67/192/158 128/193/158 129/195/158
f 69/196/159 68/194/159 129/195/159 130/197/159
f 70/198/160 69/196/160 130/197/160 131/199/160
f 71/200/161 70/198/161 131/199/161 132/201/161
f 72/202/162 71/200/162 132/201/162 133/203/162
f 61/179/163 72/202/163 133/203/163 122/180/163
f 123/181/164 122/180/164 134/98/164 135/97/164
f 124/183/165 123/181/165 135/97/165 137/100/165
f 125/187/166 124/186/166 137/102/166 138/101/166
f 126/189/167 125/187/167 138/101/167 139/103/167
f 127/191/168 126/189/168 139/103/168 140/104/168
f 128/193/169 127/191/169 140/104/169 141/105/169
f 129/195/170 128/193/170 141/105/170 142/106/170
f 130/197/171 129/195/171 142/106/171 143/107/171
f 131/199/172 130/197/172 143/107/172 144/108/172
f 132/201/173 131/199/173 144/108/173 145/109/173
f 133/203/174 132/201/174 145/109/174 146/110/174
f 122/180/175 133/203/175 146/110/175 134/98/175
f 99/127/176 98/126/177 148/204/178 147/205/179
f 102/130/180 99/127/176 147/205/179 149/206/180
f 104/133/181 102/132/180 149/207/180 150/208/182
f 106/136/183 104/133/181 150/208/182 151/209/184
f 108/138/185 106/136/183 151/209/184 152/210/185
f 110/140/186 108/138/185 152/210/185 153/211/187
f 112/142/188 110/140/186 153/211/187 154/212/189
f 114/144/190 112/142/188 154/212/189 155/213/190
f 116/146/191 114/144/190 155/213/190 156/214/192
f 118/148/193 116/146/191 156/214/192 157/215/194
f 120/150/195 118/148/193 157/215/194 158/216/195
f 98/126/177 120/150/195 158/216/195 148/204/178
f 147/205/196 148/204/197 160/153/198 159/152/196
f 149/206/199 147/205/199 159/152/199 161/156/199
f 150/208/200 149/207/200 161/159/200 162/158/200
f 151/209/201 150/208/202 162/158/202 163/162/203
f 152/210/204 151/209/201 163/162/203 164/164/204
f 153/211/205 152/210/204 164/164/204 165/166/206
f 154/212/207 153/211/205 165/166/206 166/168/207
f 155/213/208 154/212/208 166/168/208 167/170/208
f 156/214/209 155/213/209 167/170/209 168/172/209
f 157/215/210 156/214/211 168/172/211 169/174/212
f 158/216/213 157/215/210 169/174/212 170/176/213
f 148/204/197 158/216/213 170/176/213 160/153/198
